<?xml version="1.0" standalone="no"?>
<!DOCTYPE svg PUBLIC "-//W3C//DTD SVG 20010904//EN"
 "http://www.w3.org/TR/2001/REC-SVG-20010904/DTD/svg10.dtd">
<svg version="1.0" xmlns="http://www.w3.org/2000/svg"
 width="260.000000pt" height="260.000000pt" viewBox="0 0 260.000000 260.000000"
 preserveAspectRatio="xMidYMid meet">
<metadata>
Created by potrace 1.11, written by Peter Selinger 2001-2013
</metadata>
<g transform="translate(0.000000,260.000000) scale(0.100000,-0.100000)"
fill="#000000" stroke="none">
<path d="M750 1588 c0 -583 -5 -675 -38 -733 -24 -41 -94 -75 -154 -75 -63 0
-106 19 -145 63 -35 40 -49 79 -59 170 -4 31 -7 57 -8 57 -33 -1 -301 -32
-305 -35 -10 -10 17 -180 38 -240 46 -132 143 -226 276 -268 101 -32 301 -31
395 2 160 55 258 161 307 328 15 51 17 133 21 681 l3 622 -165 0 -166 0 0
-572z"/>
<path d="M1540 2138 c0 -2 -36 -192 -80 -423 -43 -231 -76 -423 -72 -426 4 -3
61 -13 127 -23 l119 -16 36 34 c107 103 259 113 355 25 63 -58 80 -110 80
-244 0 -93 -4 -118 -23 -160 -60 -131 -174 -177 -291 -119 -60 30 -104 89
-123 162 l-11 44 -41 -6 c-23 -3 -90 -11 -151 -17 -60 -6 -111 -12 -113 -14
-8 -7 30 -134 55 -185 36 -74 142 -179 216 -214 156 -73 360 -73 514 1 36 17
84 54 128 98 146 145 204 351 160 560 -19 92 -30 117 -82 197 -120 184 -362
265 -561 190 -62 -24 -60 -34 -29 128 l23 115 297 3 297 2 0 145 0 145 -415 0
c-228 0 -415 -1 -415 -2z"/>
</g>
</svg>
